<svg width="49" height="49" viewBox="0 0 49 49" fill="none" xmlns="http://www.w3.org/2000/svg">
<path fill-rule="evenodd" clip-rule="evenodd" d="M0.53595 24.525C0.53595 11.2807 11.2807 0.535934 24.525 0.535934C37.7693 0.535934 48.5141 11.2807 48.5141 24.525C48.5141 37.7693 37.7693 48.5141 24.525 48.5141C11.2807 48.5141 0.53595 37.7693 0.53595 24.525ZM24.525 4.22656C13.319 4.22656 4.22657 13.3189 4.22657 24.525C4.22657 35.7311 13.319 44.8234 24.525 44.8234C35.7311 44.8234 44.8234 35.7311 44.8234 24.525C44.8234 13.3189 35.7311 4.22656 24.525 4.22656Z" fill="#323238"/>
<path fill-rule="evenodd" clip-rule="evenodd" d="M18.9891 15.2984C20.0082 15.2984 20.8344 16.1246 20.8344 17.1437V31.9062C20.8344 32.9254 20.0082 33.7516 18.9891 33.7516C17.9699 33.7516 17.1438 32.9254 17.1438 31.9062V17.1437C17.1438 16.1246 17.9699 15.2984 18.9891 15.2984Z" fill="#323238"/>
<path fill-rule="evenodd" clip-rule="evenodd" d="M30.0609 15.2984C31.0801 15.2984 31.9063 16.1246 31.9063 17.1437V31.9062C31.9063 32.9254 31.0801 33.7516 30.0609 33.7516C29.0418 33.7516 28.2156 32.9254 28.2156 31.9062V17.1437C28.2156 16.1246 29.0418 15.2984 30.0609 15.2984Z" fill="#323238"/>
</svg>